<svg xmlns="http://www.w3.org/2000/svg" viewBox="0 0 512 512">
  <path d="M316.1 218.9h-22.3c-1.5 0-2.3.8-2.3 2.3v37.6c0 1.5.8 2.3 2.3 2.3h22.3c4.5 0 7.6-.9 9.5-2.8 1.8-1.9 2.7-5 2.7-9.3v-17.6c0-4.5-.9-7.7-2.7-9.6-1.9-1.9-5-2.9-9.5-2.9z"/>
  <path d="M0 0v512h512V0H0zm125.4 296.6c0 10.9-3 19.4-9 25.3-6 6-14.5 8.9-25.4 8.9H70c-11.1 0-19.6-2.9-25.6-8.8s-9-14.3-9-25.4v-19.7c0-2.9 1.5-4.4 4.4-4.4h17.9c2.9 0 4.4 1.5 4.4 4.4v18.5c0 4.5.9 7.7 2.8 9.6 1.9 1.9 5 2.8 9.3 2.8h12.4c4.5 0 7.6-.9 9.5-2.8 1.8-1.9 2.7-5.1 2.7-9.6v-95.1c0-2.9 1.5-4.4 4.6-4.4H121c2.9 0 4.4 1.4 4.4 4.2v96.5zm115.5-.2c0 10.9-3.1 19.4-9.2 25.4-6.2 6-14.7 9-25.6 9h-22.9a35 35 0 0 1-25.6-9c-6.2-6-9.2-14.5-9.2-25.4v-4.2c0-2.9 1.5-4.4 4.4-4.4h17.8c2.9 0 4.4 1.5 4.4 4.4v1.7c0 5.3 1 9 3.2 10.9 2.1 2 5.9 2.9 11.5 2.9h9.9c5.5 0 9.3-1.1 11.4-3.2 2.2-2.1 3.3-6 3.3-11.8v-2.5c0-4.1-1.6-7.2-4.9-9.3a25.6 25.6 0 0 0-12.3-3.9 128.2 128.2 0 0 1-31.8-7 25 25 0 0 1-12.3-11.1 41 41 0 0 1-4.9-21.3v-7.3c0-10.9 3.1-19.4 9.2-25.4 6.2-6 14.7-9 25.6-9h21c11.1 0 19.7 3 25.8 9 6.2 6 9.2 14.5 9.2 25.4v4c0 2.9-1.5 4.4-4.4 4.4h-17.8c-2.9 0-4.4-1.5-4.4-4.4V233c0-5.5-1-9.2-3.1-11.1-2.1-2-6-2.9-11.6-2.9h-8.2c-5.7 0-9.6 1.1-11.7 3.3-2 2.2-3 6.4-3 12.7v4c0 6.6 5.7 10.4 17.2 11.3 11.9 1 22.5 3.4 31.7 7.1 4.9 2.1 9 5.8 12.3 11.2a39.2 39.2 0 0 1 4.9 20.7v7.1zM355 250.2c0 10.9-3 19.4-9 25.3-6 6-14.5 8.9-25.4 8.9h-26.5c-1.7 0-2.5.8-2.5 2.3v39.7c0 2.9-1.5 4.4-4.4 4.4h-17.9c-2.9 0-4.4-1.5-4.4-4.4V200.2c0-2.9 1.5-4.4 4.4-4.4h51.2c10.9 0 19.4 3 25.4 8.9 6 6 9 14.4 9 25.3v20.2zm116.7 76.2c0 2.9-1.5 4.4-4.4 4.4H452a7 7 0 0 1-6.7-4.2l-42-78.1h-.8v77.9c0 2.9-1.5 4.4-4.4 4.4h-17.4c-2.9 0-4.4-1.5-4.4-4.4V200.2c0-2.9 1.5-4.4 4.4-4.4h15.8c2.9 0 4.9 1 5.9 2.9l42.4 79.6h.8v-78.1c0-2.9 1.5-4.4 4.4-4.4h17.4c2.9 0 4.4 1.5 4.4 4.4v126.2z"/>
</svg>
